<svg width="31" height="30" viewBox="0 0 31 30" fill="none" xmlns="http://www.w3.org/2000/svg">
<g id="simple-line-icons:plus" clip-path="url(#clip0_147_29336)">
<path id="Vector" d="M15.5 0C7.21578 0 0.5 6.71578 0.5 15C0.5 23.2847 7.21578 30 15.5 30C23.7847 30 30.5 23.2847 30.5 15C30.5 6.71578 23.7847 0 15.5 0ZM15.5 28.1545C8.26297 28.1545 2.375 22.237 2.375 14.9999C2.375 7.76291 8.26297 1.87494 15.5 1.87494C22.737 1.87494 28.625 7.76294 28.625 14.9999C28.625 22.2369 22.737 28.1545 15.5 28.1545ZM22.0625 14.0625H16.4375V8.4375C16.4375 7.92 16.0175 7.5 15.5 7.5C14.9825 7.5 14.5625 7.92 14.5625 8.4375V14.0625H8.9375C8.42 14.0625 8 14.4825 8 15C8 15.5175 8.42 15.9375 8.9375 15.9375H14.5625V21.5625C14.5625 22.08 14.9825 22.5 15.5 22.5C16.0175 22.5 16.4375 22.08 16.4375 21.5625V15.9375H22.0625C22.58 15.9375 23 15.5175 23 15C23 14.4825 22.58 14.0625 22.0625 14.0625Z" fill="#959595"/>
</g>
<defs>
<clipPath id="clip0_147_29336">
<rect width="30" height="30" fill="white" transform="translate(0.5)"/>
</clipPath>
</defs>
</svg>
