<svg width="23" height="23" viewBox="0 0 23 23" fill="none" xmlns="http://www.w3.org/2000/svg">
<g id="vaadin:morning">
<path id="Vector" d="M20.125 14.375L17.8538 12.6787L18.975 10.0625L16.1 9.73187L15.8125 6.9L13.1963 8.02125L11.5 5.75L9.80375 8.02125L7.1875 6.9L6.85687 9.775L4.025 10.0625L5.14625 12.6787L2.875 14.375H0V15.8125H23V14.375H20.125ZM5.75 14.375C5.80109 12.868 6.42193 11.4364 7.48724 10.3693C8.55255 9.30208 9.983 8.67873 11.4899 8.625C12.9987 8.67359 14.4328 9.29333 15.5021 10.3589C16.5714 11.4245 17.1961 12.8563 17.25 14.3649L5.75 14.375Z" fill="black"/>
</g>
</svg>
