<svg width="24" height="24" viewBox="0 0 24 24" fill="none" xmlns="http://www.w3.org/2000/svg">
<g id="tdesign:fog-night">
<path id="Vector" d="M10.916 0.584961L10.466 2.25996C10.166 3.37596 10.196 4.59696 10.536 5.86396C10.8034 6.86224 11.2884 7.78894 11.9564 8.57752C12.6244 9.3661 13.4587 9.99699 14.3994 10.4249C15.3401 10.8528 16.3639 11.0671 17.3972 11.0524C18.4306 11.0377 19.4478 10.7944 20.376 10.34L21.917 9.58796L21.814 11.298C21.751 12.332 21.439 13.358 20.894 14.448L20.448 15.342L18.658 14.447L19.106 13.553C19.2387 13.2876 19.3513 13.0343 19.444 12.793C17.1574 13.3544 14.7418 12.9974 12.7153 11.7986C10.6889 10.5997 9.21289 8.65442 8.60402 6.37996C8.34898 5.45162 8.23504 4.4902 8.26602 3.52796C6.61283 4.3503 5.295 5.71918 4.53604 7.4024C3.77709 9.08563 3.62374 10.9796 4.10202 12.763C4.11902 12.824 4.18702 13.014 4.27602 13.243L4.38102 13.51L4.41402 13.592L4.42402 13.614L4.42602 13.621L4.80402 14.547L2.95202 15.303L2.57402 14.377L2.57102 14.367L2.56102 14.343L2.52402 14.253L2.41102 13.965C2.32072 13.7407 2.24064 13.5125 2.17102 13.281C0.740016 7.94696 3.90601 2.46396 9.24002 1.03396L10.916 0.584961ZM2.00102 17H8.00102V19H2.00102V17ZM10.001 17H22.001V19H10.001V17ZM17.001 21H22.001V23H17.001V21ZM2.00102 21H15.001V23H2.00102V21Z" fill="#1E1E1E"/>
</g>
</svg>
