<svg width="24" height="24" viewBox="0 0 24 24" fill="none" xmlns="http://www.w3.org/2000/svg">
<g id="arcticons:snack-bar">
<path id="Vector" d="M4.00851 18.8576C3.52301 18.7996 3.07571 18.5654 2.75153 18.1994C2.42736 17.8333 2.24889 17.361 2.25001 16.8721V5.37207C2.25001 4.26407 3.14201 3.37207 4.25001 3.37207H19.75C20.858 3.37207 21.75 4.26407 21.75 5.37207V16.8721C21.7511 17.361 21.5727 17.8333 21.2485 18.1994C20.9243 18.5654 20.477 18.7996 19.9915 18.8576M16.032 18.8721H7.96851" stroke="#1E1E1E" stroke-width="0.5" stroke-linecap="round" stroke-linejoin="round"/>
<path id="Vector_2" d="M2.3252 17.4448C3.9887 12.9893 6.7727 6.60734 8.1022 7.09034C8.8612 7.36684 9.3422 8.26634 9.9522 8.89584C10.5672 9.67684 13.4322 9.67684 14.0482 8.89584C14.6582 8.26634 15.1392 7.36684 15.8982 7.09084C17.2272 6.60734 20.0112 12.9893 21.6752 17.4443" stroke="#1E1E1E" stroke-width="0.5" stroke-linecap="round" stroke-linejoin="round"/>
<path id="Vector_3" d="M10.0629 9.00631L10.4689 7.48181C9.58339 7.54031 9.02689 6.79931 9.10139 6.31031C9.22039 5.53431 10.1224 5.18131 10.7629 5.74431C10.7629 5.74431 10.9924 4.82031 12.0004 4.82031C13.0084 4.82031 13.2389 5.74431 13.2374 5.74481C13.8784 5.18131 14.7804 5.53481 14.8989 6.30981C14.9739 6.79981 14.4174 7.54031 13.5319 7.48181L13.9219 8.94681M13.7409 8.27031L10.2284 8.49731M11.9379 13.3628H12.0629M10.3549 14.1853C11.0139 14.6928 11.8829 14.2813 11.9999 13.3963C12.1179 14.2813 12.9869 14.6928 13.6459 14.1848M15.5239 12.9483C15.524 13.1788 15.4326 13.3999 15.2697 13.5629C15.1891 13.6437 15.0933 13.7077 14.9879 13.7515C14.8825 13.7952 14.7695 13.8177 14.6554 13.8178C14.4249 13.8179 14.2038 13.7265 14.0408 13.5636C13.8777 13.4008 13.786 13.1798 13.7859 12.9493C13.7858 12.7188 13.8772 12.4978 14.0401 12.3347C14.2029 12.1716 14.4239 12.0799 14.6544 12.0798C14.8849 12.0797 15.1059 12.1711 15.269 12.334C15.4321 12.4969 15.5238 12.7178 15.5239 12.9483Z" stroke="#1E1E1E" stroke-width="0.5" stroke-linecap="round" stroke-linejoin="round"/>
<path id="Vector_4" d="M10.948 14.4228C11.064 14.7143 11.3385 15.2998 11.9995 15.2998C12.6605 15.2998 12.9345 14.7148 13.051 14.4228M17.489 12.4213C19.337 11.8583 20.5345 11.8913 22.0625 12.0128M17.969 13.4853C19.228 13.4688 20.0975 13.5773 21.11 13.9118M6.51002 12.4213C4.66202 11.8583 3.46452 11.8913 1.93652 12.0128M6.03002 13.4853C4.77102 13.4688 3.90152 13.5773 2.88902 13.9118M17.682 16.1133C16.313 17.6573 15.227 19.5263 16.692 20.3968C17.862 21.0918 19.252 20.2088 20.637 17.8778M6.31752 16.1133C7.68602 17.6573 8.77252 19.5263 7.30752 20.3968C6.13752 21.0918 4.74752 20.2088 3.36152 17.8778" stroke="#1E1E1E" stroke-width="0.5" stroke-linecap="round" stroke-linejoin="round"/>
<path id="Vector_5" d="M9.34459 13.8181C9.82452 13.8181 10.2136 13.429 10.2136 12.9491C10.2136 12.4691 9.82452 12.0801 9.34459 12.0801C8.86465 12.0801 8.47559 12.4691 8.47559 12.9491C8.47559 13.429 8.86465 13.8181 9.34459 13.8181Z" stroke="#1E1E1E" stroke-width="0.5" stroke-linecap="round" stroke-linejoin="round"/>
<path id="Vector_6" d="M14.6542 13.8176C15.1341 13.8176 15.5232 13.4285 15.5232 12.9486C15.5232 12.4687 15.1341 12.0796 14.6542 12.0796C14.1742 12.0796 13.7852 12.4687 13.7852 12.9486C13.7852 13.4285 14.1742 13.8176 14.6542 13.8176Z" stroke="#1E1E1E" stroke-width="0.5" stroke-linecap="round" stroke-linejoin="round"/>
</g>
</svg>
