<svg width="20" height="20" viewBox="0 0 20 20" fill="none" xmlns="http://www.w3.org/2000/svg">
<g id="Google Logo">
<rect width="19.0609" height="19.0609" transform="translate(0.0130615 0.58145)" fill="white"/>
<g id="logo googleg 48dp">
<path id="Shape" fill-rule="evenodd" clip-rule="evenodd" d="M18.3115 10.3195C18.3115 9.67191 18.2533 9.04919 18.1454 8.45137H9.54346V11.9843H14.4589C14.2471 13.126 13.6036 14.0933 12.6363 14.7409V17.0325H15.5881C17.3151 15.4425 18.3115 13.1011 18.3115 10.3195Z" fill="#4285F4"/>
<path id="Shape_2" fill-rule="evenodd" clip-rule="evenodd" d="M9.54335 19.2452C12.0093 19.2452 14.0768 18.4273 15.588 17.0324L12.6362 14.7408C11.8184 15.2888 10.7722 15.6126 9.54335 15.6126C7.16453 15.6126 5.15105 14.006 4.43283 11.8472H1.38147V14.2135C2.88432 17.1985 5.97305 19.2452 9.54335 19.2452Z" fill="#34A853"/>
<path id="Shape_3" fill-rule="evenodd" clip-rule="evenodd" d="M4.43297 11.8474C4.25031 11.2994 4.14652 10.7141 4.14652 10.1121C4.14652 9.51012 4.25031 8.92476 4.43297 8.37676V6.0104H1.38161C0.763035 7.2434 0.410156 8.63831 0.410156 10.1121C0.410156 11.5859 0.763035 12.9808 1.38161 14.2138L4.43297 11.8474Z" fill="#FBBC05"/>
<path id="Shape_4" fill-rule="evenodd" clip-rule="evenodd" d="M9.54335 4.61124C10.8843 4.61124 12.0882 5.07206 13.0348 5.97709L15.6544 3.35748C14.0727 1.8837 12.0052 0.978667 9.54335 0.978667C5.97305 0.978667 2.88432 3.02536 1.38147 6.0103L4.43283 8.37667C5.15105 6.21788 7.16453 4.61124 9.54335 4.61124Z" fill="#EA4335"/>
</g>
</g>
</svg>
